o convex_0
v -0.049304 -0.071064 -0.006393
v -0.085800 -0.011450 -0.007610
v -0.085800 -0.011450 -0.006393
v -0.020101 -0.010228 -0.008827
v -0.039568 -0.067413 -0.012476
v -0.076057 -0.010228 -0.012476
v -0.020101 -0.083234 -0.006393
v -0.020101 -0.071064 -0.012476
v -0.020101 -0.010228 -0.011259
v -0.069973 -0.046731 -0.010042
v -0.026185 -0.010228 -0.007610
v -0.076057 -0.041865 -0.006393
v -0.071189 -0.032132 -0.012476
v -0.026185 -0.079583 -0.010042
v -0.079710 -0.010228 -0.006393
v -0.054159 -0.066198 -0.008827
v -0.080925 -0.022398 -0.010042
v -0.057806 -0.052806 -0.012476
v -0.020101 -0.078361 -0.006393
v -0.061459 -0.061331 -0.007610
v -0.031053 -0.080797 -0.007610
v -0.046873 -0.069849 -0.010042
v -0.080925 -0.030917 -0.007610
v -0.020101 -0.074716 -0.012476
v -0.055375 -0.060109 -0.011259
v -0.020101 -0.030917 -0.007610
v -0.073626 -0.010228 -0.012476
v -0.079710 -0.017532 -0.011259
v -0.076057 -0.035783 -0.010042
v -0.076057 -0.041865 -0.007610
v -0.068758 -0.052806 -0.006393
v -0.020101 -0.080797 -0.010042
v -0.029838 -0.075924 -0.011259
v -0.084571 -0.010228 -0.008827
v -0.045651 -0.073487 -0.007610
v -0.035921 -0.075924 -0.010042
v -0.031053 -0.080797 -0.006393
v -0.069973 -0.041865 -0.011259
v -0.083356 -0.023613 -0.006393
v -0.066327 -0.054021 -0.008827
v -0.022538 -0.083234 -0.007610
f 37 21 41
f 3 1 7
f 5 6 8
f 4 7 8
f 4 8 9
f 6 4 9
f 4 6 11
f 1 3 12
f 6 5 13
f 3 7 15
f 11 6 15
f 13 5 18
f 7 4 19
f 15 7 19
f 11 15 19
f 2 17 23
f 5 8 24
f 8 7 24
f 18 5 25
f 10 18 25
f 16 20 25
f 5 22 25
f 22 16 25
f 4 11 26
f 19 4 26
f 11 19 26
f 8 6 27
f 9 8 27
f 6 9 27
f 6 13 28
f 17 28 29
f 23 17 29
f 28 13 29
f 23 29 30
f 12 23 30
f 29 10 30
f 1 12 31
f 20 1 31
f 12 30 31
f 24 7 32
f 24 32 33
f 5 24 33
f 32 14 33
f 2 3 34
f 3 15 34
f 15 6 34
f 17 2 34
f 6 28 34
f 28 17 34
f 1 20 35
f 20 16 35
f 16 22 35
f 35 22 36
f 14 21 36
f 22 5 36
f 5 33 36
f 33 14 36
f 21 35 36
f 7 1 37
f 1 35 37
f 35 21 37
f 13 18 38
f 18 10 38
f 10 29 38
f 29 13 38
f 3 2 39
f 12 3 39
f 2 23 39
f 23 12 39
f 10 25 40
f 25 20 40
f 30 10 40
f 20 31 40
f 31 30 40
f 21 14 41
f 32 7 41
f 14 32 41
f 7 37 41
o convex_1
v -0.057806 0.065203 -0.006393
v -0.085800 -0.010228 -0.007610
v -0.083356 -0.009009 -0.010042
v -0.020101 -0.010228 -0.008827
v -0.020101 0.074942 -0.012476
v -0.020101 0.083462 -0.006393
v -0.076057 0.017761 -0.012476
v -0.020101 -0.010228 -0.011259
v -0.079710 -0.010228 -0.006393
v -0.073626 -0.010228 -0.012476
v -0.072404 0.043303 -0.010042
v -0.026185 -0.010228 -0.007610
v -0.083356 0.023842 -0.006393
v -0.045651 0.063983 -0.012476
v -0.034706 0.078583 -0.008827
v -0.082141 0.017761 -0.010042
v -0.057806 0.061553 -0.010042
v -0.063889 0.045742 -0.012476
v -0.074841 0.044513 -0.007610
v -0.020101 0.078583 -0.006393
v -0.044436 0.074942 -0.007610
v -0.038352 0.072503 -0.011259
v -0.022538 0.081023 -0.010042
v -0.085800 0.011681 -0.006393
v -0.077272 -0.010228 -0.012476
v -0.077272 0.033590 -0.010042
v -0.028622 0.082243 -0.006393
v -0.020101 0.071292 -0.012476
v -0.083356 0.009242 -0.010042
v -0.069973 0.051822 -0.006393
v -0.065105 0.057903 -0.007610
v -0.085800 -0.010228 -0.006393
v -0.083356 0.023842 -0.007610
v -0.072404 0.029931 -0.012476
v -0.062674 0.053042 -0.011259
v -0.085800 0.011681 -0.007610
v -0.048089 0.071292 -0.008827
v -0.080925 0.009242 -0.011259
v -0.029838 0.072503 -0.012476
v -0.052950 0.062773 -0.011259
v -0.057806 0.065203 -0.007610
v -0.071189 0.040872 -0.011259
v -0.079710 0.034792 -0.006393
v -0.028622 0.082243 -0.007610
v -0.067542 0.050603 -0.010042
v -0.044436 0.074942 -0.006393
v -0.078488 0.022631 -0.011259
v -0.079710 0.034792 -0.007610
f 74 84 89
f 45 46 47
f 45 43 49
f 46 45 49
f 43 45 50
f 47 42 50
f 48 46 51
f 49 43 51
f 50 45 53
f 50 42 54
f 46 48 55
f 55 48 59
f 45 47 61
f 47 50 61
f 53 45 61
f 50 53 61
f 63 56 64
f 47 46 64
f 50 54 65
f 43 44 66
f 51 43 66
f 48 51 66
f 60 52 67
f 42 47 68
f 46 49 69
f 51 46 69
f 49 51 69
f 44 43 70
f 54 42 71
f 60 71 72
f 71 42 72
f 43 50 73
f 65 43 73
f 50 65 73
f 65 54 74
f 67 57 74
f 59 48 75
f 43 65 77
f 70 43 77
f 57 70 77
f 65 74 77
f 74 57 77
f 62 56 78
f 56 63 78
f 66 44 79
f 48 66 79
f 44 70 79
f 70 57 79
f 46 55 80
f 55 63 80
f 63 64 80
f 64 46 80
f 55 59 81
f 63 55 81
f 76 58 81
f 59 76 81
f 58 78 81
f 78 63 81
f 42 62 82
f 72 42 82
f 58 72 82
f 62 78 82
f 78 58 82
f 67 52 83
f 59 75 83
f 75 67 83
f 76 59 83
f 54 71 84
f 71 60 84
f 74 54 84
f 56 62 85
f 64 56 85
f 47 64 85
f 68 47 85
f 62 68 85
f 52 60 86
f 60 72 86
f 72 58 86
f 58 76 86
f 83 52 86
f 76 83 86
f 62 42 87
f 42 68 87
f 68 62 87
f 57 67 88
f 75 48 88
f 67 75 88
f 48 79 88
f 79 57 88
f 60 67 89
f 67 74 89
f 84 60 89
o convex_2
v 0.037081 -0.068619 -0.012476
v 0.084547 -0.005361 -0.007609
v 0.084547 -0.009016 -0.007609
v -0.020095 -0.075920 -0.007609
v -0.020095 -0.005369 -0.011259
v 0.077244 -0.005361 -0.012476
v -0.020095 -0.074704 -0.012476
v 0.033435 -0.078358 -0.007609
v -0.020095 -0.005369 -0.008826
v 0.067503 -0.049156 -0.010043
v 0.006680 -0.083228 -0.010043
v 0.065075 -0.055241 -0.007609
v 0.072378 -0.028486 -0.012476
v -0.017657 -0.083228 -0.007609
v 0.044385 -0.071058 -0.010043
v 0.078463 -0.027271 -0.010043
v 0.017630 -0.075920 -0.012476
v 0.061419 -0.047941 -0.012476
v 0.077244 -0.035779 -0.007609
v 0.026142 -0.079581 -0.010043
v 0.010327 -0.084451 -0.007609
v -0.009135 -0.080797 -0.011259
v -0.020095 -0.071058 -0.012476
v 0.079671 -0.005361 -0.007609
v 0.055334 -0.064973 -0.008826
v 0.082109 -0.013885 -0.010043
v 0.051688 -0.062542 -0.011259
v 0.074806 -0.005361 -0.012476
v 0.072378 -0.041864 -0.010043
v -0.020095 -0.080797 -0.010043
v -0.006697 -0.083228 -0.010043
v 0.043166 -0.073496 -0.007609
v 0.010327 -0.077143 -0.012476
v 0.080890 -0.026047 -0.007609
v 0.063856 -0.054026 -0.010043
v 0.046822 -0.062542 -0.012476
v 0.076025 -0.016324 -0.012476
v 0.016421 -0.082005 -0.010043
f 100 122 127
f 92 91 93
f 93 94 96
f 95 90 96
f 92 93 97
f 94 93 98
f 92 97 101
f 90 95 102
f 97 93 103
f 96 90 106
f 90 102 107
f 92 101 108
f 90 104 109
f 104 97 109
f 106 90 109
f 97 103 110
f 109 97 110
f 96 94 112
f 95 96 112
f 93 91 113
f 91 95 113
f 98 93 113
f 91 92 115
f 95 91 115
f 114 104 116
f 94 98 117
f 112 94 117
f 95 112 117
f 113 95 117
f 98 113 117
f 101 99 118
f 102 105 118
f 107 102 118
f 99 107 118
f 108 101 118
f 105 108 118
f 93 96 119
f 103 93 119
f 96 111 119
f 119 111 120
f 110 103 120
f 100 110 120
f 111 100 120
f 103 119 120
f 101 97 121
f 97 104 121
f 114 101 121
f 104 114 121
f 96 106 122
f 111 96 122
f 100 111 122
f 92 108 123
f 108 105 123
f 115 92 123
f 105 115 123
f 99 101 124
f 107 99 124
f 101 114 124
f 116 107 124
f 114 116 124
f 104 90 125
f 90 107 125
f 116 104 125
f 107 116 125
f 102 95 126
f 105 102 126
f 95 115 126
f 115 105 126
f 106 109 127
f 110 100 127
f 109 110 127
f 122 106 127
o convex_3
v 0.077241 0.032361 -0.010043
v 0.012768 0.084679 -0.007609
v 0.018842 0.083454 -0.007609
v -0.020088 -0.005361 -0.008826
v -0.018869 0.076156 -0.012476
v 0.077241 -0.005361 -0.012476
v 0.084543 -0.005361 -0.007609
v 0.046823 0.062777 -0.012476
v -0.020088 -0.005361 -0.011259
v -0.020088 0.083454 -0.007609
v 0.049260 0.070075 -0.007609
v 0.021279 0.078580 -0.011259
v 0.078460 0.033577 -0.007609
v 0.067501 0.039659 -0.012476
v 0.066292 0.054245 -0.008826
v -0.020088 0.072499 -0.012476
v -0.010358 0.083454 -0.010043
v 0.082106 0.014117 -0.010043
v 0.040739 0.073724 -0.010043
v 0.011549 0.077373 -0.012476
v -0.020088 0.077373 -0.007609
v 0.079668 -0.005361 -0.007609
v 0.076022 0.016549 -0.012476
v 0.017633 0.082238 -0.010043
v 0.051687 0.066417 -0.010043
v 0.063855 0.050597 -0.011259
v 0.074803 -0.005361 -0.012476
v 0.083325 0.016549 -0.007609
v 0.029800 0.072499 -0.012476
v 0.037082 0.077373 -0.007609
v 0.072376 0.045731 -0.008826
v 0.009112 0.083454 -0.010043
v 0.029800 0.078580 -0.010043
v -0.009129 0.081021 -0.011259
v 0.052906 0.067633 -0.008826
v 0.058990 0.051822 -0.012476
v -0.020088 0.081021 -0.010043
v -0.012785 0.084679 -0.007609
v 0.072376 0.037226 -0.011259
f 153 158 166
f 130 129 134
f 131 133 134
f 133 132 135
f 133 131 136
f 134 129 137
f 136 131 137
f 130 134 138
f 138 134 140
f 133 135 141
f 138 140 142
f 132 133 143
f 136 137 143
f 134 133 145
f 135 132 147
f 134 137 148
f 137 131 148
f 131 134 149
f 148 131 149
f 134 148 149
f 133 141 150
f 145 133 150
f 128 145 150
f 129 130 151
f 139 147 151
f 135 146 152
f 152 142 153
f 133 136 154
f 143 133 154
f 136 143 154
f 128 140 155
f 140 134 155
f 134 145 155
f 145 128 155
f 146 135 156
f 135 147 156
f 147 139 156
f 130 138 157
f 140 128 158
f 142 140 158
f 153 142 158
f 144 129 159
f 129 151 159
f 151 147 159
f 151 130 160
f 139 151 160
f 146 156 160
f 156 139 160
f 130 157 160
f 157 146 160
f 132 144 161
f 147 132 161
f 144 159 161
f 159 147 161
f 138 142 162
f 142 152 162
f 152 146 162
f 157 138 162
f 146 157 162
f 141 135 163
f 135 152 163
f 153 141 163
f 152 153 163
f 132 143 164
f 143 137 164
f 137 144 164
f 144 132 164
f 137 129 165
f 129 144 165
f 144 137 165
f 128 150 166
f 150 141 166
f 141 153 166
f 158 128 166
o convex_4
v -0.061467 -0.064979 -0.000308
v -0.083364 -0.043083 0.009422
v -0.082147 -0.045519 0.009422
v -0.061467 -0.063763 0.011859
v -0.069983 -0.041864 -0.006393
v -0.078496 -0.041864 0.011859
v -0.074847 -0.045519 -0.006393
v -0.071201 -0.061328 0.011859
v -0.061467 -0.052819 -0.005174
v -0.063902 -0.060114 -0.006393
v -0.062684 -0.069850 0.009422
v -0.071201 -0.060114 0.006989
v -0.076063 -0.041864 -0.006393
v -0.083364 -0.041864 0.011859
v -0.068768 -0.043083 -0.005174
v -0.061467 -0.069850 0.011859
v -0.077280 -0.052819 0.008207
v -0.069983 -0.052819 -0.006393
v -0.061467 -0.061328 -0.006393
v -0.067550 -0.064979 0.008207
v -0.061467 -0.052819 -0.006393
v -0.078496 -0.051600 0.011859
v -0.077280 -0.046732 -0.000308
v -0.062684 -0.064979 -0.000308
f 186 176 190
f 170 172 174
f 170 167 175
f 173 171 176
f 172 171 179
f 173 168 179
f 171 173 179
f 168 169 180
f 174 172 180
f 179 168 180
f 172 179 180
f 171 172 181
f 172 170 181
f 170 175 181
f 167 170 182
f 170 174 182
f 177 167 182
f 174 177 182
f 178 174 183
f 178 183 184
f 173 176 184
f 176 178 184
f 175 167 185
f 176 171 185
f 177 174 186
f 178 176 186
f 174 178 186
f 171 181 187
f 181 175 187
f 175 185 187
f 185 171 187
f 180 169 188
f 174 180 188
f 169 183 188
f 183 174 188
f 169 168 189
f 168 173 189
f 183 169 189
f 184 183 189
f 173 184 189
f 167 177 190
f 185 167 190
f 176 185 190
f 177 186 190
o convex_5
v -0.083365 -0.041864 0.011859
v -0.091884 -0.018747 0.009422
v -0.089450 -0.018747 0.003339
v -0.080934 -0.010228 -0.005174
v -0.077285 -0.040647 -0.006393
v -0.079717 -0.039430 0.011859
v -0.071199 -0.041864 -0.005174
v -0.089450 -0.010228 0.011859
v -0.087014 -0.010228 -0.005174
v -0.083365 -0.033345 -0.001524
v -0.085797 -0.038210 0.009422
v -0.084580 -0.022398 -0.006393
v -0.091884 -0.010228 0.011859
v -0.080934 -0.010228 -0.006393
v -0.071199 -0.039430 -0.005174
v -0.088231 -0.010228 0.010640
v -0.089450 -0.028477 0.011859
v -0.089450 -0.027257 0.008207
v -0.071199 -0.041864 -0.006393
v -0.082149 -0.041864 0.004555
v -0.091884 -0.010228 0.006989
v -0.079717 -0.041864 0.011859
v -0.088231 -0.012662 -0.002741
v -0.078502 -0.040647 -0.005174
v -0.085797 -0.010228 -0.006393
v -0.076068 -0.041864 -0.006393
v -0.085797 -0.022398 -0.003957
f 213 202 217
f 191 196 198
f 198 194 199
f 191 198 203
f 198 199 203
f 199 194 204
f 195 202 204
f 196 197 205
f 204 194 205
f 194 198 206
f 198 196 206
f 196 205 206
f 205 194 206
f 201 191 207
f 203 192 207
f 191 203 207
f 200 201 208
f 207 192 208
f 201 207 208
f 197 191 209
f 195 204 209
f 205 197 209
f 204 205 209
f 191 201 210
f 201 200 210
f 209 191 210
f 192 203 211
f 203 199 211
f 196 191 212
f 191 197 212
f 197 196 212
f 193 192 213
f 199 202 213
f 192 211 213
f 211 199 213
f 202 195 214
f 200 202 214
f 210 200 214
f 202 199 215
f 199 204 215
f 204 202 215
f 195 209 216
f 209 210 216
f 214 195 216
f 210 214 216
f 192 193 217
f 202 200 217
f 208 192 217
f 200 208 217
f 193 213 217
o convex_6
v -0.045647 -0.075931 -0.003957
v -0.060247 -0.064983 0.011859
v -0.059028 -0.063767 0.009422
v -0.061465 -0.061336 -0.006393
v -0.044430 -0.068633 -0.005174
v -0.045647 -0.082018 0.011859
v -0.061465 -0.071065 0.009422
v -0.061465 -0.055249 -0.005174
v -0.044430 -0.077149 0.011859
v -0.044430 -0.074712 -0.006393
v -0.055378 -0.068633 -0.005174
v -0.049299 -0.079583 0.008207
v -0.060247 -0.055249 -0.006393
v -0.061465 -0.071065 0.011859
v -0.060247 -0.055249 -0.005174
v -0.044430 -0.082018 0.009422
v -0.061465 -0.064983 0.011859
v -0.044430 -0.068633 -0.006393
v -0.055378 -0.075931 0.009422
v -0.061465 -0.063767 -0.003957
v -0.050516 -0.072283 -0.005174
f 229 236 238
f 221 224 225
f 220 219 226
f 219 223 226
f 222 226 227
f 221 227 228
f 221 225 230
f 227 221 230
f 223 219 231
f 225 224 231
f 219 220 232
f 225 219 232
f 220 226 232
f 226 222 232
f 222 230 232
f 230 225 232
f 226 223 233
f 227 226 233
f 218 227 233
f 229 218 233
f 223 229 233
f 219 225 234
f 231 219 234
f 225 231 234
f 222 227 235
f 230 222 235
f 227 230 235
f 224 228 236
f 229 223 236
f 223 231 236
f 231 224 236
f 224 221 237
f 228 224 237
f 221 228 237
f 227 218 238
f 228 227 238
f 218 229 238
f 236 228 238
o convex_7
v -0.026183 -0.084448 -0.003959
v -0.041993 -0.069850 -0.005175
v -0.041993 -0.069850 -0.006393
v -0.043210 -0.083232 0.011858
v -0.020097 -0.086882 0.011858
v -0.020097 -0.079585 -0.006393
v -0.043210 -0.075936 -0.006393
v -0.044427 -0.078368 0.011858
v -0.020097 -0.090535 0.008209
v -0.035910 -0.086882 0.009424
v -0.020097 -0.084448 -0.006393
v -0.022531 -0.089318 0.013076
v -0.044427 -0.069850 -0.006393
v -0.044427 -0.079585 0.002128
v -0.033476 -0.082017 -0.003959
v -0.022531 -0.078368 -0.005175
v -0.022531 -0.090535 0.008209
v -0.043210 -0.078368 0.011858
v -0.028614 -0.089318 0.011858
v -0.044427 -0.082017 0.008209
v -0.029832 -0.082017 -0.006393
v -0.020097 -0.090535 0.011858
f 257 255 260
f 241 244 245
f 244 243 247
f 245 244 249
f 244 247 249
f 246 242 250
f 240 241 251
f 241 245 251
f 246 240 251
f 246 251 252
f 251 245 252
f 252 245 253
f 239 248 253
f 248 252 253
f 241 240 254
f 240 243 254
f 243 244 254
f 244 241 254
f 248 239 255
f 239 249 255
f 249 247 255
f 243 240 256
f 240 246 256
f 246 250 256
f 250 243 256
f 242 248 257
f 250 242 257
f 248 255 257
f 242 246 258
f 248 242 258
f 246 252 258
f 252 248 258
f 245 249 259
f 249 239 259
f 253 245 259
f 239 253 259
f 247 243 260
f 243 250 260
f 255 247 260
f 250 257 260
o convex_8
v -0.088232 -0.010228 -0.002741
v -0.087015 0.021407 0.011859
v -0.090665 0.021407 0.011859
v -0.079717 0.021407 -0.006393
v -0.088232 -0.010228 0.010640
v -0.080934 -0.010228 -0.005174
v -0.085801 0.017753 -0.006393
v -0.093100 -0.006574 0.008207
v -0.087015 -0.007794 -0.006393
v -0.093100 0.006803 0.008207
v -0.093100 -0.010228 0.011859
v -0.088232 0.021407 0.000909
v -0.088232 0.009237 -0.003957
v -0.079717 0.017753 -0.005174
v -0.080934 -0.010228 -0.006393
v -0.091882 0.018973 0.009422
v -0.093100 0.010454 0.011859
v -0.089448 -0.010228 0.011859
v -0.089448 -0.004143 -0.001524
v -0.084584 0.021407 -0.006393
v -0.087015 0.020190 0.011859
f 278 265 281
f 263 262 264
f 265 261 266
f 267 264 269
f 262 263 271
f 261 265 271
f 268 261 271
f 270 268 271
f 263 264 272
f 267 269 273
f 272 267 273
f 264 262 274
f 274 266 275
f 266 261 275
f 269 264 275
f 261 269 275
f 264 274 275
f 263 272 276
f 273 270 276
f 272 273 276
f 271 263 277
f 270 271 277
f 263 276 277
f 276 270 277
f 262 271 278
f 271 265 278
f 261 268 279
f 269 261 279
f 268 270 279
f 270 273 279
f 273 269 279
f 264 267 280
f 272 264 280
f 267 272 280
f 265 266 281
f 274 262 281
f 266 274 281
f 262 278 281
o convex_9
v -0.071199 0.054255 -0.002741
v -0.090667 0.021407 0.008207
v -0.090667 0.021407 0.011859
v -0.078500 0.022630 -0.005174
v -0.069982 0.055473 0.011859
v -0.080932 0.048171 0.010640
v -0.083364 0.027495 -0.006393
v -0.069982 0.042087 -0.006393
v -0.087016 0.021407 0.011859
v -0.069982 0.061553 0.009422
v -0.084580 0.037230 0.004555
v -0.073633 0.048171 -0.006393
v -0.084580 0.021407 -0.006393
v -0.085797 0.038448 0.011859
v -0.072416 0.060338 0.010640
v -0.078500 0.050604 0.006989
v -0.069982 0.050604 -0.006393
v -0.089450 0.028713 0.009422
v -0.079717 0.038448 -0.005174
v -0.079717 0.021407 -0.006393
v -0.071199 0.060338 0.011859
v -0.069982 0.042087 -0.005174
v -0.080932 0.045738 0.005772
v -0.085797 0.038448 0.009422
v -0.085797 0.025062 -0.002741
v