####
#
# OBJ File Generated by Meshlab
#
####
# Object textured.obj
#
# Vertices: 4996
# Faces: 10000
#
####
mtllib ./textured.mtl

vn 0.141067 0.147029 0.979021
v -0.062367 -0.066559 0.011420 0.749020 0.749020 0.749020
vn -0.437101 -0.326146 0.838196
v -0.073946 -0.054553 0.011341 0.749020 0.749020 0.749020
vn -0.519082 -0.411935 0.748908
v -0.072284 -0.056965 0.011236 0.749020 0.749020 0.749020
vn -0.357000 -0.443867 0.821908
v -0.058177 -0.071251 0.011246 0.749020 0.749020 0.749020
vn 0.123880 0.139416 0.982455
v -0.059056 -0.069559 0.011404 0.749020 0.749020 0.749020
vn -0.231042 -0.197995 0.952585
v -0.070821 -0.058362 0.011399 0.749020 0.749020 0.749020
vn -0.016936 -0.019268 0.999671
v -0.074430 -0.053110 0.011501 0.749020 0.749020 0.749020
vn -0.175264 -0.142601 0.974139
v -0.072409 -0.056141 0.011472 0.749020 0.749020 0.749020
vn -0.408806 -0.354007 0.841164
v -0.070078 -0.059477 0.011316 0.749020 0.749020 0.749020
vn 0.189551 0.185488 0.964191
v -0.063629 -0.065189 0.011424 0.749020 0.749020 0.749020
vn -0.051364 -0.059499 0.996906
v -0.065191 -0.064256 0.011443 0.749020 0.749020 0.749020
vn -0.063038 -0.055881 0.996445
v -0.068556 -0.060346 0.011466 0.749020 0.749020 0.749020
vn 0.205775 0.171914 0.963381
v -0.070691 -0.057571 0.011445 0.749020 0.749020 0.749020
vn -0.200986 -0.184311 0.962099
v -0.067169 -0.062311 0.011445 0.749020 0.749020 0.749020
vn -0.394258 -0.375894 0.838609
v -0.067027 -0.062897 0.011310 0.749020 0.749020 0.749020
vn 0.164849 0.140542 0.976254
v -0.066861 -0.061866 0.011440 0.749020 0.749020 0.749020
vn -0.260177 -0.281007 0.923766
v -0.062962 -0.066893 0.011349 0.749020 0.749020 0.749020
vn -0.112275 -0.137258 0.984152
v -0.059546 -0.069601 0.011411 0.749020 0.749020 0.749020
vn -0.783186 -0.621784 0.002051
v -0.072398 -0.057408 0.010512 0.749020 0.749020 0.749020
vn -0.693784 -0.585210 0.419754
v -0.070358 -0.059804 0.010816 0.749020 0.749020 0.749020
vn 0.550351 0.427147 0.717398
v -0.071344 -0.055863 0.011121 0.749020 0.749020 0.749020
vn -0.713670 -0.663279 0.225245
v -0.068341 -0.062145 0.010683 0.749020 0.749020 0.749020
vn 0.487675 0.432692 0.758255
v -0.066856 -0.061152 0.011236 0.749020 0.749020 0.749020
vn 0.465620 0.326379 0.822603
v -0.075179 -0.051060 0.011345 0.749020 0.749020 0.749020
vn -0.668179 -0.730185 0.142711
v -0.062389 -0.068143 0.010608 0.749020 0.749020 0.749020
vn -0.701190 -0.704387 0.110322
v -0.064290 -0.066330 0.010616 0.749020 0.749020 0.749020
vn -0.561078 -0.644639 0.519262
v -0.060363 -0.069680 0.011075 0.749020 0.749020 0.749020
vn 0.045684 0.053637 0.997515
v -0.049533 -0.076815 0.011331 0.749020 0.749020 0.749020
vn -0.459374 -0.644050 0.611698
v -0.053849 -0.074877 0.010972 0.749020 0.749020 0.749020
vn -0.576032 -0.525755 0.625914
v -0.068038 -0.062071 0.011132 0.749020 0.749020 0.749020
vn 0.263563 0.239368 0.934472
v -0.065094 -0.063680 0.011387 0.749020 0.749020 0.749020
vn -0.594058 -0.397280 0.699474
v -0.076401 -0.051288 0.011259 0.749020 0.749020 0.749020
vn 0.132916 0.074432 0.988329
v -0.079283 -0.045280 0.011517 0.749020 0.749020 0.749020
vn -0.678097 -0.488365 0.549258
v -0.075244 -0.053360 0.010962 0.749020 0.749020 0.749020
vn -0.587710 -0.592928 0.550484
v -0.064848 -0.065584 0.011003 0.749020 0.749020 0.749020
vn -0.419963 -0.535346 0.732827
v -0.055987 -0.073182 0.011069 0.749020 0.749020 0.749020
vn -0.254490 -0.160506 0.953663
v -0.077990 -0.048136 0.011516 0.749020 0.749020 0.749020
vn -0.457826 -0.332274 0.824614
v -0.075047 -0.052938 0.011399 0.749020 0.749020 0.749020
vn 0.419769 0.436940 0.795536
v -0.062092 -0.066171 0.011168 0.749020 0.749020 0.749020
vn 0.251838 0.311059 0.916417
v -0.057423 -0.070647 0.011334 0.749020 0.749020 0.749020
vn -0.505898 -0.670207 0.543037
v -0.055130 -0.073995 0.010976 0.749020 0.749020 0.749020
vn -0.702223 -0.531411 0.473799
v -0.073527 -0.055696 0.010950 0.749020 0.749020 0.749020
vn -0.303413 -0.416995 0.856770
v -0.054857 -0.073715 0.011270 0.749020 0.749020 0.749020
vn 0.236187 0.170918 0.956558
v -0.072937 -0.054490 0.011460 0.749020 0.749020 0.749020
vn -0.024296 -0.047230 0.998589
v -0.054313 -0.073727 0.011371 0.749020 0.749020 0.749020
vn 0.303290 0.187520 0.934265
v -0.077586 -0.047633 0.011448 0.749020 0.749020 0.749020
vn 0.209843 0.285111 0.935242
v -0.052436 -0.074526 0.011304 0.749020 0.749020 0.749020
vn 0.515342 0.460022 0.723050
v -0.068415 -0.059287 0.011090 0.749020 0.749020 0.749020
vn -0.218220 -0.345217 0.912801
v -0.049886 -0.077176 0.011258 0.749020 0.749020 0.749020
vn -0.141142 -0.188602 0.971858
v -0.057410 -0.071499 0.011366 0.749020 0.749020 0.749020
vn -0.546403 -0.686725 0.479430
v -0.057492 -0.072174 0.010894 0.749020 0.749020 0.749020
vn 0.574610 0.236427 0.783534
v -0.083308 -0.036672 0.011418 0.749020 0.749020 0.749020
vn -0.568909 -0.805897 -0.163929
v -0.054088 -0.074894 0.010359 0.749020 0.749020 0.749020
vn 0.239906 0.097164 0.965921
v -0.082727 -0.038582 0.011523 0.749020 0.749020 0.749020
vn -0.538276 -0.269281 0.798591
v -0.082282 -0.041026 0.011356 0.749020 0.749020 0.749020
vn -0.841464 -0.521294 0.142093
v -0.077739 -0.049894 0.010629 0.749020 0.749020 0.749020
vn 0.763291 0.503390 0.404951
v -0.076269 -0.048665 0.010887 0.749020 0.749020 0.749020
vn 0.447398 0.516259 0.730282
v -0.057804 -0.069788 0.011082 0.749020 0.749020 0.749020
vn -0.502165 -0.730839 0.462281
v -0.051771 -0.076429 0.010958 0.749020 0.749020 0.749020
vn -0.711023 -0.679999 -0.179020
v -0.066478 -0.064084 0.010251 0.749020 0.749020 0.749020
vn -0.793517 -0.527540 0.303369
v -0.076673 -0.051559 0.010713 0.749020 0.749020 0.749020
vn -0.487067 -0.781379 0.390143
v -0.049108 -0.078231 0.010891 0.749020 0.749020 0.749020
vn 0.159670 0.293651 0.942483
v -0.043145 -0.080366 0.011271 0.749020 0.749020 0.749020
vn -0.575758 -0.795607 0.188449
v -0.054189 -0.074844 0.010604 0.749020 0.749020 0.749020
vn -0.678027 -0.696654 -0.234420
v -0.064665 -0.065923 0.010258 0.749020 0.749020 0.749020
vn -0.737290 -0.643142 -0.206815
v -0.069964 -0.060315 0.010299 0.749020 0.749020 0.749020
vn -0.802196 -0.582448 0.131283
v -0.075106 -0.053824 0.010580 0.749020 0.749020 0.749020
vn 0.681662 0.513416 0.521288
v -0.073882 -0.052307 0.011021 0.749020 0.749020 0.749020
vn -0.355249 -0.172089 0.918795
v -0.083055 -0.038997 0.011484 0.749020 0.749020 0.749020
vn -0.197797 -0.101261 0.974999
v -0.080952 -0.042823 0.011532 0.749020 0.749020 0.749020
vn 0.559671 0.326441 0.761712
v -0.079149 -0.044614 0.011301 0.749020 0.749020 0.749020
vn -0.647390 -0.760226 -0.054245
v -0.059649 -0.070530 0.010370 0.749020 0.749020 0.749020
vn -0.438329 -0.249930 0.863367
v -0.079865 -0.045408 0.011382 0.749020 0.749020 0.749020
vn -0.622727 -0.753433 0.211069
v -0.058615 -0.071374 0.010674 0.749020 0.749020 0.749020
vn -0.676304 -0.412807 0.610085
v -0.078644 -0.047986 0.011146 0.749020 0.749020 0.749020
vn 0.066638 0.033462 0.997216
v -0.081660 -0.040877 0.011505 0.749020 0.749020 0.749020
vn 0.337069 0.505428 0.794309
v -0.048494 -0.076745 0.011110 0.749020 0.749020 0.749020
vn 0.635094 0.406362 0.656906
v -0.077385 -0.047356 0.011236 0.749020 0.749020 0.749020
vn -0.118644 -0.204225 0.971708
v -0.045864 -0.079491 0.011262 0.749020 0.749020 0.749020
vn 0.081863 0.135828 0.987345
v -0.045957 -0.079028 0.011295 0.749020 0.749020 0.749020
vn -0.370348 -0.701455 0.608936
v -0.043137 -0.081613 0.010942 0.749020 0.749020 0.749020
vn -0.312649 -0.131510 0.940721
v -0.084787 -0.035069 0.011510 0.749020 0.749020 0.749020
vn 0.239531 0.493659 0.836018
v -0.038853 -0.082258 0.011111 0.749020 0.749020 0.749020
vn 0.516554 0.495481 0.698334
v -0.064954 -0.063223 0.011113 0.749020 0.749020 0.749020
vn -0.149445 -0.324982 0.933838
v -0.038988 -0.083240 0.011196 0.749020 0.749020 0.749020
vn 0.671620 0.330116 0.663287
v -0.081372 -0.040181 0.011220 0.749020 0.749020 0.749020
vn 0.301638 0.509241 0.806032
v -0.045629 -0.078639 0.011114 0.749020 0.749020 0.749020
vn -0.791669 -0.593047 -0.146819
v -0.073954 -0.055365 0.010328 0.749020 0.749020 0.749020
vn 0.713356 0.489670 0.501345
v -0.074614 -0.051282 0.010975 0.749020 0.749020 0.749020
vn 0.680652 0.549031 0.485054
v -0.071602 -0.054984 0.010649 0.749020 0.749020 0.749020
vn 0.644234 0.553194 0.528147
v -0.068758 -0.058324 0.010577 0.749020 0.749020 0.749020
vn -0.542718 -0.831394 -0.119341
v -0.050150 -0.077607 0.010418 0.749020 0.749020 0.749020
vn 0.106338 -0.505853 0.856040
v -0.016270 0.079811 -0.008187 0.749020 0.749020 0.749020
vn -0.510087 -0.859679 0.027626
v -0.046908 -0.079650 0.010564 0.749020 0.749020 0.749020
vn -0.863056 -0.428369 0.267646
v -0.082914 -0.040729 0.010691 0.749020 0.749020 0.749020
vn -0.717108 -0.391035 0.576929
v -0.080847 -0.044145 0.011149 0.749020 0.749020 0.749020
vn -0.339105 -0.580445 0.740332
v -0.045307 -0.080236 0.011087 0.749020 0.749020 0.749020
vn -0.475613 -0.830983 0.288548
v -0.044969 -0.080716 0.010765 0.749020 0.749020 0.749020
vn -0.027015 -0.058951 0.997895
v -0.043402 -0.080576 0.011304 0.749020 0.749020 0.749020
vn -0.859745 -0.469706 0.200536
v -0.081088 -0.044290 0.010606 0.749020 0.749020 0.749020
vn 0.652492 0.589887 0.475697
v -0.065701 -0.061759 0.010526 0.749020 0.749020 0.749020
vn -0.819980 -0.481525 0.309463
v -0.079847 -0.046392 0.010751 0.749020 0.749020 0.749020
vn -0.330805 -0.684188 0.649965
v -0.039999 -0.083158 0.010960 0.749020 0.749020 0.749020
vn 0.034562 0.062325 0.997457
v -0.039454 -0.082469 0.011262 0.749020 0.749020 0.749020
vn -0.200539 -0.382739 0.901829
v -0.043684 -0.080897 0.011224 0.749020 0.749020 0.749020
vn 0.602457 0.632840 0.486373
v -0.063325 -0.063739 0.009877 0.749020 0.749020 0.749020
vn 0.137355 0.502670 0.853496
v -0.032882 -0.084963 0.011322 0.749020 0.749020 0.749020
vn -0.645982 -0.717800 -0.259749
v -0.061949 -0.068508 0.010292 0.749020 0.749020 0.749020
vn -0.315605 -0.658577 0.683132
v -0.031842 -0.086680 0.011420 0.749020 0.749020 0.749020
vn -0.079571 -0.939196 0.334036
v 0.007572 0.085139 -0.003519 0.749020 0.749020 0.749020
vn 0.072548 0.359393 0.930362
v -0.029136 -0.086737 0.011776 0.749020 0.749020 0.749020
vn 0.497870 0.534308 0.683111
v -0.059391 -0.067325 0.010131 0.749020 0.749020 0.749020
vn 0.062700 0.364066 0.929260
v -0.030890 -0.086067 0.011542 0.749020 0.749020 0.749020
vn 0.746379 0.561587 0.357125
v -0.073443 -0.052070 0.009699 0.749020 0.749020 0.749020
vn 0.610090 0.195273 0.767892
v -0.085452 -0.030904 0.011346 0.749020 0.749020 0.749020
vn -0.612995 -0.785956 -0.080680
v -0.057043 -0.072655 0.010371 0.749020 0.749020 0.749020
vn 0.469909 0.756448 0.454942
v -0.045535 -0.078288 0.010626 0.749020 0.749020 0.749020
vn -0.868848 -0.445793 -0.215342
v -0.081894 -0.042780 0.010284 0.749020 0.749020 0.749020
vn 0.377630 0.793135 0.477841
v -0.038598 -0.082063 0.010801 0.749020 0.749020 0.749020
vn 0.354882 0.664634 0.657511
v -0.042615 -0.080197 0.011003 0.749020 0.749020 0.749020
vn -0.453865 -0.850063 -0.267207
v -0.043693 -0.081378 0.010294 0.749020 0.749020 0.749020
vn -0.838442 -0.372523 0.397796
v -0.084368 -0.037592 0.010813 0.749020 0.749020 0.749020
vn -0.612723 -0.201834 0.764090
v -0.087372 -0.028791 0.011375 0.749020 0.749020 0.749020
vn -0.041056 -0.019072 0.998975
v -0.086549 -0.029630 0.011569 0.749020 0.749020 0.749020
vn 0.258813 0.080067 0.962603
v -0.086076 -0.030004 0.011509 0.749020 0.749020 0.749020
vn -0.775883 -0.289739 0.560407
v -0.086695 -0.031420 0.011044 0.749020 0.749020 0.749020
vn -0.096836 -0.922658 0.373263
v 0.009113 0.085939 -0.001280 0.749020 0.749020 0.749020
vn 0.459727 0.630593 0.625302
v -0.053037 -0.073590 0.011016 0.749020 0.749020 0.749020
vn 0.396213 0.142788 0.906988
v -0.084957 -0.033006 0.011481 0.749020 0.749020 0.749020
vn 0.463421 0.189364 0.865669
v -0.083999 -0.034924 0.011453 0.749020 0.749020 0.749020
vn -0.415708 -0.879823 0.230431
v -0.039807 -0.083397 0.010714 0.749020 0.749020 0.749020
vn -0.081900 0.043784 0.995678
v -0.032481 -0.085779 0.011543 0.749020 0.749020 0.749020
vn 0.034036 0.202286 0.978735
v -0.034444 -0.084611 0.011256 0.749020 0.749020 0.749020
vn -0.111390 -0.177884 0.977727
v -0.029842 -0.086870 0.011752 0.749020 0.749020 0.749020
vn -0.123308 -0.269285 0.955134
v -0.036882 -0.084097 0.011233 0.749020 0.749020 0.749020
vn -0.076634 -0.306865 0.948663
v -0.027009 -0.087869 0.011789 0.749020 0.749020 0.749020
vn -0.210302 -0.301387 0.930021
v -0.034474 -0.085323 0.011191 0.749020 0.749020 0.749020
vn -0.458186 -0.877638 0.140774
v -0.043707 -0.081437 0.010673 0.749020 0.749020 0.749020
vn -0.425198 -0.100893 0.899460
v -0.088401 -0.024552 0.011511 0.749020 0.749020 0.749020
vn 0.562831 0.664124 0.492098
v -0.055180 -0.071625 0.010643 0.749020 0.749020 0.749020
vn 0.785867 0.465322 0.407294
v -0.078114 -0.045623 0.010648 0.749020 0.749020 0.749020
vn -0.424252 -0.895956 -0.131428
v -0.039529 -0.083517 0.010427 0.749020 0.749020 0.749020
vn 0.776712 0.241038 0.581910
v -0.086352 -0.027811 0.011222 0.749020 0.749020 0.749020
vn 0.270513 0.824139 0.497613
v -0.030585 -0.085213 0.010758 0.749020 0.749020 0.749020
vn 0.164919 0.614221 0.771709
v -0.030526 -0.085680 0.011255 0.749020 0.749020 0.749020
vn -0.315531 -0.947913 0.043599
v -0.029940 -0.087499 0.011064 0.749020 0.749020 0.749020
vn -0.885128 -0.347057 0.309999
v -0.086065 -0.033560 0.010736 0.749020 0.749020 0.749020
vn 0.226631 0.751407 0.619698
v -0.029416 -0.085964 0.011268 0.749020 0.749020 0.749020
vn -0.889863 -0.404254 -0.211478
v -0.084205 -0.037944 0.010231 0.749020 0.749020 0.749020
vn -0.200516 -0.660532 0.723527
v -0.025978 -0.088581 0.011486 0.749020 0.749020 0.749020
vn 0.796047 0.293525 0.529294
v -0.084952 -0.031612 0.011022 0.749020 0.749020 0.749020
vn -0.811263 -0.536230 -0.233042
v -0.077211 -0.050668 0.010221 0.749020 0.749020 0.749020
vn 0.285121 0.743400 0.605030
v -0.034506 -0.083881 0.010835 0.749020 0.749020 0.749020
vn -0.352641 -0.765544 0.538132
v -0.035006 -0.085451 0.010925 0.749020 0.749020 0.749020
vn -0.356077 -0.930138 -0.089732
v -0.032987 -0.086384 0.010675 0.749020 0.749020 0.749020
vn -0.253386 -0.728137 0.636877
v -0.030036 -0.087331 0.011487 0.749020 0.749020 0.749020
vn -0.242203 -0.781073 0.575555
v -0.028201 -0.087849 0.011533 0.749020 0.749020 0.749020
vn 0.058329 0.170816 0.983575
v -0.025292 -0.087907 0.011759 0.749020 0.749020 0.749020
vn 0.527393 0.727648 0.438618
v -0.051351 -0.074097 0.010072 0.749020 0.749020 0.749020
vn 0.000582 0.001055 0.999999
v -0.087918 -0.025245 0.011578 0.749020 0.749020 0.749020
vn -0.527223 -0.757153 -0.385688
v -0.052851 -0.075136 0.009068 0.749020 0.749020 0.749020
vn 0.415405 0.134721 0.899605
v -0.087117 -0.026494 0.011512 0.749020 0.749020 0.749020
vn -0.026817 0.081690 0.996297
v -0.024374 -0.088232 0.011808 0.749020 0.749020 0.749020
vn -0.552111 -0.156094 0.819029
v -0.088989 -0.022994 0.011418 0.749020 0.749020 0.749020
vn 0.618965 0.703525 0.349191
v -0.054279 -0.070968 0.008992 0.749020 0.749020 0.749020
vn 0.582585 0.695735 0.420176
v -0.053311 -0.072153 0.009115 0.749020 0.749020 0.749020
vn -0.843726 -0.489430 -0.220417
v -0.080254 -0.045747 0.010330 0.749020 0.749020 0.749020
vn 0.437023 0.814275 0.382057
v -0.041861 -0.080211 0.010351 0.749020 0.749020 0.749020
vn 0.530903 0.750156 0.394219
v -0.062131 -0.063846 0.008530 0.749020 0.749020 0.749020
vn 0.782595 0.526839 0.331640
v -0.073894 -0.050679 0.008663 0.749020 0.749020 0.749020
vn 0.491007 0.657093 0.571962
v -0.060371 -0.065043 0.009020 0.749020 0.749020 0.749020
vn -0.385377 -0.909186 -0.157685
v -0.035254 -0.085463 0.010468 0.749020 0.749020 0.749020
vn -0.312164 -0.880528 -0.356684
v -0.031556 -0.086566 0.009968 0.749020 0.749020 0.749020
vn -0.273937 -0.951345 -0.141073
v -0.026109 -0.088640 0.010724 0.749020 0.749020 0.749020
vn -0.917246 -0.376030 -0.131381
v -0.085554 -0.034885 0.010374 0.749020 0.749020 0.749020
vn -0.840031 -0.392137 -0.374935
v -0.083252 -0.038985 0.009228 0.749020 0.749020 0.749020
vn 0.182251 0.681145 0.709102
v -0.024689 -0.087724 0.011560 0.749020 0.749020 0.749020
vn 0.081472 0.251108 0.964524
v -0.022111 -0.088757 0.011869 0.749020 0.749020 0.749020
vn 0.047452 0.093154 0.994520
v -0.020465 -0.089406 0.011770 0.749020 0.749020 0.749020
vn -0.924390 -0.314434 0.215952
v -0.087413 -0.029960 0.010657 0.749020 0.749020 0.749020
vn 0.465963 0.616673 0.634502
v -0.060991 -0.066052 0.010234 0.749020 0.749020 0.749020
vn -0.303647 -0.075336 0.949801
v -0.088388 -0.023791 0.011571 0.749020 0.749020 0.749020
vn 