####
#
# OBJ File Generated by Meshlab
#
####
# Object textured.obj
#
# Vertices: 5002
# Faces: 10000
#
####
mtllib ./textured.obj.mtl

vn -0.742699 -0.309403 -0.593858
v -0.072163 -0.003015 -0.005718 0.749020 0.749020 0.749020
vn -0.329250 -0.623419 -0.709185
v -0.071879 -0.004210 -0.005144 0.749020 0.749020 0.749020
vn 0.803726 0.300235 0.513696
v 0.071934 0.004196 0.005938 0.749020 0.749020 0.749020
vn 0.921796 0.263165 0.284667
v 0.072436 0.004449 0.004801 0.749020 0.749020 0.749020
vn -0.909201 -0.415610 0.024924
v -0.072416 -0.004444 -0.003677 0.749020 0.749020 0.749020
vn -0.545105 -0.837602 -0.035822
v -0.072147 -0.004782 -0.004007 0.749020 0.749020 0.749020
vn -0.634387 -0.554980 -0.538099
v -0.072097 -0.004306 -0.004908 0.749020 0.749020 0.749020
vn -0.840044 -0.344722 -0.418918
v -0.072265 -0.004069 -0.004858 0.749020 0.749020 0.749020
vn -0.872168 -0.237628 -0.427618
v -0.072305 -0.002991 -0.005515 0.749020 0.749020 0.749020
vn -0.872138 -0.420767 -0.249662
v -0.072308 -0.004528 -0.004228 0.749020 0.749020 0.749020
vn -0.991541 -0.120179 -0.049030
v -0.072462 -0.004214 -0.003699 0.749020 0.749020 0.749020
vn -0.341044 -0.827162 -0.446646
v -0.071870 -0.004790 -0.004526 0.749020 0.749020 0.749020
vn -0.592962 -0.262984 -0.761075
v -0.072018 -0.001824 -0.006363 0.749020 0.749020 0.749020
vn -0.133941 -0.403989 -0.904905
v -0.071476 -0.002604 -0.006302 0.749020 0.749020 0.749020
vn -0.674230 -0.719708 0.165630
v -0.072340 -0.004302 -0.002761 0.749020 0.749020 0.749020
vn -0.462644 -0.441044 -0.769052
v -0.071933 -0.003265 -0.005788 0.749020 0.749020 0.749020
vn -0.973981 -0.224048 0.034122
v -0.072447 -0.004083 -0.003002 0.749020 0.749020 0.749020
vn -0.979708 -0.119167 -0.161155
v -0.072447 -0.003395 -0.004852 0.749020 0.749020 0.749020
vn -0.955743 -0.098668 -0.277165
v -0.072373 -0.002088 -0.005757 0.749020 0.749020 0.749020
vn -0.410667 -0.899528 0.149003
v -0.072231 -0.004225 -0.002007 0.749020 0.749020 0.749020
vn -0.732961 -0.674387 0.089278
v -0.072374 -0.004072 -0.001620 0.749020 0.749020 0.749020
vn -0.421689 -0.141501 -0.895632
v -0.071858 -0.000845 -0.006699 0.749020 0.749020 0.749020
vn -0.711336 -0.020862 -0.702542
v -0.072221 -0.000223 -0.006478 0.749020 0.749020 0.749020
vn 0.697439 0.663734 0.270253
v 0.071550 0.006302 0.003737 0.749020 0.749020 0.749020
vn -0.989953 0.004007 -0.141343
v -0.072417 0.000016 -0.005995 0.749020 0.749020 0.749020
vn -0.890051 -0.008277 -0.455785
v -0.072344 -0.000192 -0.006316 0.749020 0.749020 0.749020
vn -0.999896 0.006566 -0.012846
v -0.072451 -0.003161 -0.003229 0.749020 0.749020 0.749020
vn -0.112441 -0.720848 -0.683911
v -0.071408 -0.004635 -0.004881 0.749020 0.749020 0.749020
vn -0.387949 -0.305199 -0.869683
v -0.071836 -0.002056 -0.006387 0.749020 0.749020 0.749020
vn -0.076949 -0.904495 -0.419485
v -0.071438 -0.004846 -0.004593 0.749020 0.749020 0.749020
vn -0.777906 -0.156555 -0.608567
v -0.072231 -0.001369 -0.006277 0.749020 0.749020 0.749020
vn -0.999727 0.006414 -0.022449
v -0.072444 -0.001902 -0.004567 0.749020 0.749020 0.749020
vn 0.813870 0.574114 0.089487
v 0.072107 0.006043 0.001987 0.749020 0.749020 0.749020
vn 0.870713 0.466436 0.155871
v 0.072385 0.005330 0.003371 0.749020 0.749020 0.749020
vn -0.384931 -0.918758 0.087816
v -0.071750 -0.004453 -0.002473 0.749020 0.749020 0.749020
vn 0.977933 0.196376 0.071303
v 0.072497 0.005033 0.003291 0.749020 0.749020 0.749020
vn 0.924621 -0.066762 0.374992
v 0.072135 0.004059 0.005619 0.749020 0.749020 0.749020
vn 0.995447 -0.095002 0.007717
v 0.072521 0.004468 0.003893 0.749020 0.749020 0.749020
vn -0.119364 -0.578690 -0.806765
v -0.071374 -0.003830 -0.005590 0.749020 0.749020 0.749020
vn -0.252037 -0.941829 0.222339
v -0.072054 -0.004431 -0.002781 0.749020 0.749020 0.749020
vn -0.999878 0.010753 -0.011345
v -0.072464 -0.001484 -0.003076 0.749020 0.749020 0.749020
vn 0.710237 0.518136 0.476549
v 0.071790 0.004852 0.005539 0.749020 0.749020 0.749020
vn 0.932798 -0.339569 0.120755
v 0.072418 0.004070 0.004794 0.749020 0.749020 0.749020
vn -0.147954 -0.259135 -0.954442
v -0.071413 -0.001715 -0.006627 0.749020 0.749020 0.749020
vn 0.755048 0.560184 0.340729
v 0.072082 0.005372 0.004269 0.749020 0.749020 0.749020
vn -0.999602 -0.020295 -0.019616
v -0.072510 -0.003535 -0.002295 0.749020 0.749020 0.749020
vn -0.994967 -0.100169 0.002790
v -0.072507 -0.003534 -0.000529 0.749020 0.749020 0.749020
vn 0.653173 0.378551 0.655792
v 0.071448 0.004266 0.006510 0.749020 0.749020 0.749020
vn -0.676097 -0.731231 -0.090519
v -0.071422 -0.004651 -0.002265 0.749020 0.749020 0.749020
vn 0.597811 0.686795 0.413442
v 0.071300 0.005995 0.004736 0.749020 0.749020 0.749020
vn -0.496668 -0.867861 0.011772
v -0.072176 -0.004095 -0.000303 0.749020 0.749020 0.749020
vn -0.486317 0.054910 -0.872056
v -0.071946 0.000325 -0.006691 0.749020 0.749020 0.749020
vn -0.221874 -0.974097 0.043662
v -0.071344 -0.004630 -0.003130 0.749020 0.749020 0.749020
vn -0.908407 0.139061 -0.394282
v -0.072314 0.001842 -0.006117 0.749020 0.749020 0.749020
vn -0.491349 -0.867524 0.077317
v -0.072201 -0.004094 -0.000934 0.749020 0.749020 0.749020
vn -0.999746 0.020503 -0.009364
v -0.072441 -0.002414 -0.002134 0.749020 0.749020 0.749020
vn -0.807677 -0.588735 0.032396
v -0.072438 -0.003910 -0.000718 0.749020 0.749020 0.749020
vn -0.956929 -0.289412 0.022970
v -0.072469 -0.003910 -0.001639 0.749020 0.749020 0.749020
vn -0.219576 -0.036884 -0.974898
v -0.071544 0.000047 -0.006865 0.749020 0.749020 0.749020
vn -0.999473 -0.013533 -0.029509
v -0.072442 -0.000611 -0.005580 0.749020 0.749020 0.749020
vn -0.031823 -0.966514 -0.254633
v -0.069667 -0.004898 -0.004489 0.749020 0.749020 0.749020
vn -0.087851 -0.993454 0.073021
v -0.071587 -0.004905 -0.004158 0.749020 0.749020 0.749020
vn -0.030443 -0.989816 0.139060
v -0.070428 -0.004746 -0.003566 0.749020 0.749020 0.749020
vn 0.744043 0.654437 0.134582
v 0.071725 0.006402 0.002675 0.749020 0.749020 0.749020
vn -0.213164 0.094385 -0.972447
v -0.071424 0.000738 -0.006867 0.749020 0.749020 0.749020
vn 0.931452 -0.334218 0.143859
v 0.071886 0.003426 0.005724 0.749020 0.749020 0.749020
vn -0.854370 -0.518872 -0.028690
v -0.071655 -0.004425 -0.000788 0.749020 0.749020 0.749020
vn 0.587255 0.259165 0.766789
v 0.071519 0.002314 0.007276 0.749020 0.749020 0.749020
vn -0.605239 -0.794138 -0.055052
v -0.072272 -0.004036 0.000614 0.749020 0.749020 0.749020
vn -0.309787 0.237258 -0.920728
v -0.071698 0.001723 -0.006612 0.749020 0.749020 0.749020
vn -0.999868 0.009159 -0.013413
v -0.072407 -0.000759 -0.003813 0.749020 0.749020 0.749020
vn -0.351563 -0.900564 -0.255709
v -0.071087 -0.004755 -0.002708 0.749020 0.749020 0.749020
vn -0.999151 0.021905 -0.034878
v -0.072458 -0.002637 -0.001069 0.749020 0.749020 0.749020
vn -0.999759 0.018241 -0.012251
v -0.072511 -0.003256 -0.000524 0.749020 0.749020 0.749020
vn -0.908346 -0.410558 -0.079685
v -0.071517 -0.004637 -0.001345 0.749020 0.749020 0.749020
vn -0.815452 -0.577888 0.032906
v -0.071391 -0.005045 -0.000029 0.749020 0.749020 0.749020
vn -0.739665 -0.669935 0.063905
v -0.071611 -0.004471 0.001162 0.749020 0.749020 0.749020
vn 0.989611 0.143708 -0.004143
v 0.072494 0.005168 0.000990 0.749020 0.749020 0.749020
vn 0.885411 0.203760 0.417768
v 0.071703 0.003020 0.006739 0.749020 0.749020 0.749020
vn 0.996207 -0.034914 0.079707
v 0.071792 0.003037 0.006150 0.749020 0.749020 0.749020
vn -0.746287 -0.647659 -0.153600
v -0.072426 -0.003989 0.001334 0.749020 0.749020 0.749020
vn -0.018744 -0.266821 -0.963564
v -0.069547 -0.001588 -0.006670 0.749020 0.749020 0.749020
vn -0.057172 -0.150248 -0.986994
v -0.070908 -0.000876 -0.006828 0.749020 0.749020 0.749020
vn -0.988091 0.057999 -0.142525
v -0.072409 0.002790 -0.005277 0.749020 0.749020 0.749020
vn -0.998668 0.020399 -0.047396
v -0.072444 0.001293 -0.005181 0.749020 0.749020 0.749020
vn -0.033844 -0.028175 -0.999030
v -0.070900 0.000103 -0.006924 0.749020 0.749020 0.749020
vn -0.049943 0.098138 -0.993919
v -0.071111 0.000781 -0.006894 0.749020 0.749020 0.749020
vn -0.072512 0.237946 -0.968568
v -0.071195 0.001529 -0.006764 0.749020 0.749020 0.749020
vn -0.107498 -0.934179 -0.340225
v -0.070434 -0.005114 -0.002345 0.749020 0.749020 0.749020
vn -0.044482 -0.776985 -0.627945
v -0.069295 -0.004642 -0.004900 0.749020 0.749020 0.749020
vn -0.799638 -0.594612 -0.083756
v -0.071335 -0.005112 -0.000778 0.749020 0.749020 0.749020
vn 0.505346 0.683666 0.526523
v 0.071366 0.005498 0.005377 0.749020 0.749020 0.749020
vn -0.631828 0.188636 -0.751805
v -0.072065 0.001742 -0.006424 0.749020 0.749020 0.749020
vn -0.570083 -0.821203 0.025117
v -0.071811 -0.004279 -0.000722 0.749020 0.749020 0.749020
vn -0.557551 -0.830143 -0.000080
v -0.071832 -0.004252 0.000230 0.749020 0.749020 0.749020
vn 0.999420 -0.033231 -0.007398
v 0.072498 0.004582 0.002629 0.749020 0.749020 0.749020
vn -0.432219 -0.869565 -0.238837
v -0.070995 -0.005173 -0.001852 0.749020 0.749020 0.749020
vn -0.996834 0.078188 -0.014449
v -0.072489 -0.001961 -0.000618 0.749020 0.749020 0.749020
vn -0.864101 0.491310 0.109293
v -0.072343 -0.001314 -0.000684 0.749020 0.749020 0.749020
vn -0.999573 0.023653 0.017168
v -0.072472 -0.000730 -0.002137 0.749020 0.749020 0.749020
vn -0.978380 0.161688 0.128958
v -0.072450 -0.001419 -0.001271 0.749020 0.749020 0.749020
vn -0.999969 0.006059 0.005046
v -0.072455 0.000701 -0.003532 0.749020 0.749020 0.749020
vn -0.999838 0.005106 -0.017254
v -0.072537 -0.003010 0.002168 0.749020 0.749020 0.749020
vn -0.413052 -0.908548 -0.062675
v -0.071677 -0.004401 0.001966 0.749020 0.749020 0.749020
vn 0.864030 -0.502367 -0.032851
v 0.072360 0.004015 0.003794 0.749020 0.749020 0.749020
vn -0.076562 -0.978685 -0.190564
v -0.070456 -0.005405 -0.001360 0.749020 0.749020 0.749020
vn -0.020912 -0.991795 0.126113
v -0.069464 -0.004920 -0.004218 0.749020 0.749020 0.749020
vn 0.880381 0.078887 0.467660
v 0.071774 0.003601 0.006336 0.749020 0.749020 0.749020
vn 0.912113 0.408572 0.033454
v 0.072365 0.005652 0.001959 0.749020 0.749020 0.749020
vn -0.993559 -0.106283 0.039301
v -0.072601 -0.003978 0.003512 0.749020 0.749020 0.749020
vn -0.806439 0.421881 0.414334
v -0.072281 -0.000897 -0.001316 0.749020 0.749020 0.749020
vn 0.983812 0.178394 0.017018
v 0.072466 0.005283 0.002615 0.749020 0.749020 0.749020
vn -0.786918 0.191503 0.586589
v -0.072266 -0.000033 -0.001905 0.749020 0.749020 0.749020
vn 0.244764 0.165699 0.955319
v 0.071172 0.001165 0.007710 0.749020 0.749020 0.749020
vn 0.515462 0.242593 0.821856
v 0.071286 0.003351 0.006904 0.749020 0.749020 0.749020
vn -0.008958 -0.142515 -0.989752
v -0.069947 -0.000791 -0.006830 0.749020 0.749020 0.749020
vn -0.828219 0.356012 -0.432791
v -0.072245 0.003733 -0.005238 0.749020 0.749020 0.749020
vn -0.973557 -0.224743 -0.040945
v -0.072509 -0.003684 0.000874 0.749020 0.749020 0.749020
vn -0.313804 0.402077 -0.860152
v -0.071698 0.002698 -0.006260 0.749020 0.749020 0.749020
vn -0.952988 -0.297675 -0.056593
v -0.072569 -0.004127 0.003156 0.749020 0.749020 0.749020
vn -0.983747 0.166465 -0.067316
v -0.072480 -0.001751 -0.000223 0.749020 0.749020 0.749020
vn -0.991335 0.122245 -0.048076
v -0.072487 -0.001628 0.000244 0.749020 0.749020 0.749020
vn -0.999820 0.002392 -0.018809
v -0.072425 0.001758 -0.003070 0.749020 0.749020 0.749020
vn -0.958027 0.077704 0.275946
v -0.072415 0.000047 -0.002234 0.749020 0.749020 0.749020
vn -0.829705 -0.193681 0.523524
v -0.072320 0.000600 -0.001852 0.749020 0.749020 0.749020
vn -0.520513 -0.853658 -0.018263
v -0.071114 -0.005322 -0.000576 0.749020 0.749020 0.749020
vn -0.131184 0.615822 -0.776887
v -0.071552 0.003951 -0.005543 0.749020 0.749020 0.749020
vn -0.737229 0.497442 0.457214
v -0.071876 -0.000616 -0.001096 0.749020 0.749020 0.749020
vn -0.130235 -0.981218 -0.142303
v -0.071754 -0.004462 0.002630 0.749020 0.749020 0.749020
vn -0.886850 -0.343576 0.308955
v -0.072327 0.001109 -0.001523 0.749020 0.749020 0.749020
vn -0.415997 -0.808962 0.415363
v -0.072170 -0.004620 0.003927 0.749020 0.749020 0.749020
vn -0.885775 0.334791 -0.321432
v -0.072376 -0.000905 0.000817 0.749020 0.749020 0.749020
vn -0.989863 0.140121 -0.023191
v -0.072467 0.003530 -0.003172 0.749020 0.749020 0.749020
vn -0.361177 -0.925089 0.117312
v -0.070925 -0.005362 0.000311 0.749020 0.749020 0.749020
vn 0.999509 -0.019966 0.024134
v 0.071804 0.002764 0.005011 0.749020 0.749020 0.749020
vn -0.442269 -0.861466 0.249548
v -0.071043 -0.005171 0.001107 0.749020 0.749020 0.749020
vn -0.990242 -0.087299 0.108631
v -0.072465 0.001284 -0.001967 0.749020 0.749020 0.749020
vn -0.325772 -0.927859 -0.181522
v -0.072223 -0.004262 0.002055 0.749020 0.749020 0.749020
vn -0.543098 0.410288 -0.732604
v -0.071982 0.003276 -0.005830 0.749020 0.749020 0.749020
vn -0.999654 0.017969 -0.019199
v -0.072541 -0.002078 0.001662 0.749020 0.749020 0.749020
vn -0.957736 0.249485 -0.143172
v -0.072436 0.003641 -0.004814 0.749020 0.749020 0.749020
vn -0.849568 -0.511254 0.129819
v -0.072467 -0.004455 0.003555 0.749020 0.749020 0.749020
vn -0.197250 -0.977066 -0.080215
v -0.070725 -0.005463 -0.000685 0.749020 0.749020 0.749020
vn -0.648991 -0.750064 0.127335
v -0.071208 -0.005169 0.000605 0.749020 0.749020 0.749020
vn -0.568580 0.810626 0.140007
v -0.072263 0.004067 -0.003985 0.749020 0.749020 0.749020
vn -0.569371 0.821977 0.013041
v -0.072250 0.004053 -0.003661 0.749020 0.749020 0.749020
vn -0.461680 0.823037 -0.330850
v -0.071975 0.004326 -0.004956 0.749020 0.749020 0.749020
vn -0.354391 0.926330 0.127747
v -0.072077 0.004328 -0.004557 0.749020 0.749020 0.749020
vn 0.579784 0.811003 0.078259
v 0.071376 0.006853 0.002035 0.749020 0.749020 0.749020
vn 0.756017 0.654488 0.009111
v 0.071732 0.006594 0.001180 0.749020 0.749020 0.749020
vn -0.997866 -0.018377 -0.062649
v -0.072487 -0.000129 0.001902 0.749020 0.749020 0.749020
vn -0.899912 0.435864 0.013408
v -0.072371 0.003867 -0.003510 0.749020 0.749020 0.749020
vn -0.999634 -0.011832 -0.024347
v -0.072533 -0.000314 0.003089 0.749020 0.749020 0.749020
vn -0.936601 0.347347 -0.046133
v -0.071707 -0.000610 -0.000121 0.749020 0.749020 0.749020
vn -0.441587 -0.888889 0.121974
v -0.071516 -0.004471 0.002118 0.749020 0.749020 0.749020
vn -0.265398 -0.951024 -0.158485
v -0.072167 -0.004628 0.003296 0.749020 0.749020 0.749020
vn 0.499401 0.315919 0.806718
v 0.070823 0.004055 0.007095 0.749020 0.749020 0.749020
vn -0.032494 -0.493308 -0.869248
v -0.069549 -0.003181 -0.006037 0.749020 0.749020 0.749020
vn -0.047957 -0.641206 -0.765869
v -0.069447 -0.004169 -0.005343 0.749020 0.749020 0.749020
vn -0.816456 0.553664 -0.163877
v -0.072252 0.004145 -0.004598 0.749020 0.749020 0.749020
vn -0.959559 -0.153137 0.236211
v -0.072555 -0.003298 0.004358 0.749020 0.749020 0.749020
vn -0.525259 0.601466 -0.601948
v -0.071939 0.004081 -0.005310 0.749020 0.749020 0.749020
vn -0.999844 0.014705 0.009751
v -0.072592 -0.002367 0.004089 0.749020 0.749020 0.749020
vn -0.104688 -0.972112 -0.209853
v -0.070591 -0.004747 -0.003213 0.749020 0.749020 0.749020
vn -0.996070 0.054110 -0.070124
v -0.072506 -0.001279 0.001510 0.749020 0.749020 0.749020
vn -0.999583 0.027912 -0.007408
v -0.072540 -0.001674 0.003257 0.749020 0.749020 0.749020
vn -0.916207 0.074563 0.393707
v -0.071738 0.000098 -0.001386 0.749020 0.749020 0.749020
vn -0.864197 -0.365714 0.345567
v -0.071772 0.000589 -0.001279 0.749020 0.749020 0.749020
vn -0.924294 0.116518 -0.363462
v -0.072427 -0.000544 0.001206 0.749020 0.749020 0.749020
vn -0.803000 0.563098 -0.195222
v -0.072294 -0.001232 0.000123 0.749020 0.749020 0.749020
vn -0.863177 0.470883 0.182196
v -0.071801 -0.000743 -0.000709 0.749020 0.749020 0.749020
vn 0.959404 -0.281213 -0.021534
v 0.072464 0.004325 0.002510 0.749020 0.749020 0.749020
vn -0.152887 0.978278 0.139990
v -0.071643 0.004220 -0.004268 0.749020 0.749020 0.749020
vn -0.664691 -0.436701 0.606200
v -0.072203 -0.003692 0.004761 0.749020 0.749020 0.749020
vn 0.173251 0.818799 0.547314
v 0.070838 0.005270 0.005946 0.749020 0.749020 0.749020
vn -0.064302 -0.944467 0.322253
v -0.070233 -0.005205 0.001346 0.749020 0.749020 0.749020
vn 0.450780 0.673999 0.585255
v 0.071133 0.005092 0.006076 0.749020 0.749020 0.749020
vn -0.267674 -0.886005 0.378610
v -0.070923 -0.004880 0.001943 0.749020 0.749020 0.749020
vn 0.304933 0.754490 0.581173
v 0.070736 0.006429 0.004656 0.749020 0.749020 0.749020
vn -0.836530 0.349789 -0.421742
v -0.071784 -0.000491 0.000415 0.749020 0.749020 0.749020
vn -0.007912 -0.943484 -0.331323
v -0.069243 -0.004898 -0