# Blender v2.82 (sub 6) OBJ File: ''
# www.blender.org
mtllib textured_simple_reoriented.mtl
o textured_simple_reoriented.009
v 0.045474 0.019245 0.025982
v 0.046656 0.018535 0.026605
v 0.047563 0.019311 0.025455
v 0.044596 0.018042 0.027579
v 0.075037 -0.009684 0.030160
v 0.076883 -0.010066 0.030164
v 0.076193 -0.008276 0.030725
v 0.045633 0.014531 0.030785
v 0.044685 0.013308 0.031843
v 0.047056 0.012950 0.031822
v 0.046985 0.014931 0.030244
v 0.098162 0.000930 0.007028
v 0.097612 0.002398 0.009194
v 0.099257 0.000715 0.008149
v 0.116534 -0.025283 0.021608
v 0.117858 -0.025840 0.019353
v 0.117274 -0.024269 0.021228
v 0.116087 -0.026569 0.021104
v 0.118433 -0.024221 0.019792
v 0.095906 0.003190 0.008274
v 0.096222 0.003618 0.009836
v 0.096219 0.002398 0.007120
v 0.075393 -0.006613 0.031172
v 0.120109 -0.021482 0.016863
v 0.119438 -0.023000 0.017922
v 0.119312 -0.024134 0.016413
v 0.044048 0.015603 0.030108
v 0.096552 0.001294 0.006018
v 0.118177 -0.021420 0.020062
v 0.117631 -0.020661 0.020311
v 0.117221 -0.021442 0.020920
v 0.116779 -0.020708 0.021138
v 0.115972 -0.020463 0.021728
v 0.116373 -0.021150 0.021584
v 0.116718 -0.021907 0.021452
v 0.117446 -0.022453 0.021008
v 0.076071 -0.004305 0.031717
v 0.074964 -0.003520 0.031884
v 0.073864 -0.004588 0.031641
v 0.042490 0.014137 0.031515
v 0.042967 0.012822 0.032353
v 0.118770 -0.020482 0.018952
v 0.119137 -0.021502 0.018833
v 0.073259 -0.002593 0.032096
v 0.072514 -0.004575 0.031636
v 0.118071 -0.018951 0.018992
v 0.118952 -0.019482 0.018144
v 0.108739 -0.007564 0.008797
v 0.108624 -0.006646 0.010524
v 0.110200 -0.007993 0.011140
v 0.109567 -0.009295 0.007871
v 0.110538 -0.009086 0.009302
v 0.111407 -0.010526 0.008531
v 0.073291 -0.006282 0.031193
v 0.116795 -0.019499 0.020647
v 0.107731 -0.007938 0.007223
v 0.045410 0.016504 0.029040
v 0.107318 -0.004714 0.013207
v 0.108668 -0.006335 0.012142
v 0.107291 -0.005134 0.011072
v 0.107686 -0.006188 0.009396
v 0.118656 -0.024913 0.017787
v 0.041563 0.015572 0.030422
v 0.105954 -0.003529 0.012359
v 0.106502 -0.003633 0.014665
v 0.118558 -0.022665 0.019832
v 0.070267 -0.006227 0.031068
v 0.071526 -0.007370 0.030756
v 0.117074 -0.022754 0.021400
v 0.116639 -0.023254 0.021779
v 0.040965 0.012103 0.032907
v 0.106300 -0.004611 0.009904
v 0.040672 0.014233 0.031554
v 0.040007 0.013201 0.032323
v 0.073465 -0.007813 0.030713
v 0.104951 -0.003148 0.010288
v 0.119597 -0.020545 0.017698
v 0.072602 -0.008856 0.030284
v 0.074030 -0.010467 0.029769
v 0.039135 0.014734 0.031318
v 0.104791 -0.003771 0.008680
v 0.105641 -0.004887 0.008234
v 0.072326 -0.010342 0.029642
v 0.038852 0.012551 0.032808
v 0.113462 -0.018121 0.022649
v 0.112811 -0.017863 0.023049
v 0.112621 -0.018729 0.023389
v 0.113394 -0.015721 0.021811
v 0.114348 -0.016798 0.021503
v 0.112372 -0.016014 0.022715
v 0.112404 -0.017885 0.023341
v 0.112166 -0.018996 0.023753
v 0.106802 -0.006333 0.007884
v 0.111541 -0.017972 0.023913
v 0.111445 -0.018912 0.024118
v 0.110933 -0.017679 0.024130
v 0.110618 -0.019566 0.024526
v 0.110353 -0.018833 0.024595
v 0.109861 -0.017347 0.024560
v 0.109422 -0.018547 0.024898
v 0.108903 -0.019662 0.025068
v 0.070270 -0.009299 0.029902
v 0.038932 0.016091 0.030290
v 0.111322 -0.017136 0.023773
v 0.070566 -0.011174 0.029063
v 0.107111 -0.009066 0.005946
v 0.105393 -0.006993 0.006015
v 0.046604 0.017402 0.027914
v 0.081722 0.002764 0.029111
v 0.082118 0.001213 0.029875
v 0.083225 0.001742 0.029105
v 0.110925 -0.016139 0.023566
v 0.083495 0.002995 0.028167
v 0.086976 -0.000040 0.028656
v 0.085677 0.001028 0.028516
v 0.084418 -0.000106 0.029658
v 0.109207 -0.015903 0.024458
v 0.108484 -0.016918 0.025037
v 0.109931 -0.016140 0.024139
v 0.084603 0.001697 0.028520
v 0.042689 0.017021 0.028957
v 0.109720 -0.014334 0.023514
v 0.103494 -0.004046 0.006588
v 0.109147 -0.015353 0.024256
v 0.110636 -0.016996 0.024037
v 0.085444 -0.001870 0.030192
v 0.087028 -0.001465 0.029421
v 0.105127 -0.005436 0.007004
v 0.083612 -0.001285 0.030538
v 0.041967 0.017976 0.028090
v 0.114172 -0.022127 0.023000
v 0.115246 -0.023976 0.022477
v 0.115329 -0.022467 0.022483
v 0.113453 -0.022974 0.023239
v 0.116184 -0.022747 0.022009
v 0.103559 -0.005422 0.005615
v 0.114893 -0.025734 0.021972
v 0.043219 0.019238 0.026447
v 0.104329 -0.008240 0.004700
v 0.102449 -0.006341 0.004481
v 0.110327 -0.011051 0.007103
v 0.111521 -0.011728 0.007502
v 0.113577 -0.024682 0.022727
v 0.041561 0.019314 0.026655
v 0.111294 -0.013009 0.006465
v 0.112863 -0.025969 0.022305
v 0.113941 -0.026996 0.021517
v 0.040758 0.017357 0.028888
v 0.085989 0.002592 0.027258
v 0.109098 -0.011293 0.006126
v 0.111850 -0.021017 0.024024
v 0.111990 -0.023203 0.023537
v 0.110364 -0.022512 0.024068
v 0.108435 -0.010187 0.006194
v 0.109540 -0.023964 0.023676
v 0.110309 -0.013450 0.005674
v 0.111687 -0.024805 0.023028
v 0.039112 0.017594 0.028900
v 0.080472 0.002672 0.029660
v 0.111573 -0.026746 0.022053
v 0.111840 -0.014364 0.006107
v 0.110084 -0.015260 0.004789
v 0.112429 -0.016021 0.005778
v 0.039812 0.019188 0.027122
v 0.079689 0.001451 0.030605
v 0.078835 0.003026 0.030115
v 0.078026 0.001081 0.031331
v 0.111168 -0.016243 0.004983
v 0.110113 -0.015938 0.004588
v 0.109919 -0.017334 0.004124
v 0.109648 -0.025638 0.022906
v 0.109813 -0.026993 0.022039
v 0.109324 -0.013756 0.005035
v 0.107990 -0.012041 0.005127
v 0.115995 -0.021779 0.021988
v 0.081158 0.000342 0.030653
v 0.080980 -0.001426 0.031372
v 0.109008 -0.014963 0.004423
v 0.115290 -0.021272 0.022293
v 0.107887 -0.013961 0.004322
v 0.037180 0.018546 0.028184
v 0.108170 -0.014744 0.004135
v 0.079298 -0.000464 0.031518
v 0.107775 -0.015151 0.003830
v 0.108480 -0.016438 0.003794
v 0.115413 -0.019727 0.021866
v 0.114555 -0.020778 0.022584
v 0.107633 -0.012927 0.004619
v 0.112840 -0.019878 0.023499
v 0.113799 -0.020877 0.023086
v 0.114780 -0.019626 0.022279
v 0.113710 -0.019791 0.023025
v 0.039109 0.009617 0.033732
v 0.039761 0.010529 0.033574
v 0.037638 0.009669 0.033770
v 0.114398 -0.018826 0.022257
v 0.039942 0.007314 0.033641
v 0.040290 0.009041 0.033750
v 0.038756 0.008329 0.033760
v 0.113419 -0.018905 0.022940
v 0.106805 -0.010746 0.004945
v 0.037704 0.008711 0.033783
v 0.115734 -0.018120 0.020928
v 0.114820 -0.018823 0.021935
v 0.037847 0.006595 0.033526
v 0.036574 0.009025 0.033838
v 0.106947 -0.014330 0.003686
v 0.107036 -0.012477 0.004437
v 0.105974 -0.012097 0.004039
v 0.105753 -0.013158 0.003557
v 0.035148 0.008278 0.033780
v 0.107170 -0.014990 0.003563
v 0.105831 -0.014965 0.003032
v 0.106311 -0.014069 0.003461
v 0.112016 -0.019816 0.023919
v 0.084073 0.004326 0.026921
v 0.085293 0.004198 0.026409
v 0.105571 -0.013504 0.003372
v 0.037575 0.011614 0.033323
v 0.104628 -0.013911 0.002916
v 0.105848 -0.008905 0.005273
v 0.082286 0.004124 0.027930
v 0.109041 -0.021170 0.024712
v 0.036086 0.011026 0.033557
v 0.035572 0.009712 0.033802
v 0.104707 -0.010072 0.004158
v 0.105257 -0.011303 0.003964
v 0.105964 -0.015871 0.025845
v 0.106759 -0.013680 0.025067
v 0.105200 -0.013613 0.025803
v 0.104896 -0.011611 0.003710
v 0.104244 -0.011232 0.003541
v 0.103347 -0.010364 0.003388
v 0.108549 -0.018085 0.025147
v 0.083032 0.005568 0.026431
v 0.107133 -0.019143 0.025518
v 0.085615 0.005718 0.024814
v 0.107533 -0.017549 0.025425
v 0.104960 -0.012359 0.003485
v 0.106167 -0.017582 0.025849
v 0.103900 -0.012411 0.003040
v 0.034382 0.011227 0.033574
v 0.034364 0.009742 0.033814
v 0.104992 -0.018554 0.026009
v 0.107009 -0.016633 0.025538
v 0.107626 -0.015442 0.024993
v 0.080597 0.005281 0.027848
v 0.104333 -0.015745 0.002332
v 0.033273 0.010209 0.033782
v 0.107930 -0.013712 0.024261
v 0.102929 -0.013342 0.002400
v 0.081593 0.006582 0.026213
v 0.104544 -0.002445 0.011430
v 0.033439 0.007995 0.033720
v 0.105236 -0.015770 0.026084
v 0.080060 0.004080 0.028939
v 0.103294 -0.001918 0.009716
v 0.103357 -0.002709 0.008160
v 0.032639 0.011882 0.033457
v 0.104758 -0.015309 0.026231
v 0.032244 0.009960 0.033820
v 0.031213 0.010478 0.033793
v 0.102274 -0.001708 0.008250
v 0.103394 -0.015098 0.026726
v 0.103863 -0.014320 0.026500
v 0.102970 -0.013966 0.026852
v 0.103640 -0.012684 0.026412
v 0.102371 -0.013466 0.027074
v 0.101790 -0.000617 0.009617
v 0.103078 -0.001212 0.011018
v 0.031397 0.009024 0.033824
v 0.101508 -0.014451 0.027408
v 0.102660 -0.016260 0.026829
v 0.031900 0.007280 0.033605
v 0.077347 0.004106 0.029971
v 0.104103 -0.017140 0.026346
v 0.078783 0.005523 0.028433
v 0.102213 -0.002597 0.006799
v 0.102309 -0.018210 0.026447
v 0.029668 0.007927 0.033695
v 0.103931 -0.019527 0.025935
v 0.079819 0.006440 0.027219
v 0.100438 -0.000249 0.008035
v 0.102215 -0.020227 0.025810
v 0.101154 -0.001841 0.006546
v 0.029986 0.010497 0.033809
v 0.029750 0.009523 0.033843
v 0.077360 0.006136 0.028576
v 0.078409 0.006930 0.027499
v 0.101073 -0.003306 0.005339
v 0.028350 0.010303 0.033876
v 0.101018 -0.017505 0.026851
v 0.027755 0.008745 0.033810
v 0.101691 -0.004667 0.004955
v 0.107518 -0.022282 0.024591
v 0.107933 -0.024773 0.023464
v 0.107428 -0.023444 0.024116
v 0.076448 0.002844 0.031011
v 0.076090 0.001688 0.031618
v 0.107530 -0.025605 0.023024
v 0.108434 -0.026206 0.022617
v 0.037364 0.014412 0.031736
v 0.102476 -0.008501 0.003592
v 0.107463 -0.026398 0.022508
v 0.107790 -0.026751 0.022258
v 0.036117 0.013252 0.032574
v 0.107193 -0.025997 0.022784
v 0.106415 -0.024372 0.023713
v 0.106592 -0.025351 0.023183
v 0.101345 -0.008404 0.003115
v 0.106032 -0.026950 0.022129
v 0.102724 -0.009631 0.003357
v 0.102546 -0.009935 0.003177
v 0.074581 0.002551 0.031701
v 0.075730 0.000466 0.032069
v 0.101072 -0.010037 0.002547
v 0.106131 -0.020716 0.025318
v 0.074787 0.004076 0.030900
v 0.078397 -0.001528 0.031897
v 0.076881 -0.000932 0.032074
v 0.035186 0.014668 0.031739
v 0.101839 -0.011741 0.002358
v 0.105582 -0.022976 0.024428
v 0.034257 0.013144 0.032789
v 0.036478 0.015844 0.030704
v 0.105071 -0.023969 0.023930
v 0.077551 -0.001722 0.032025
v 0.101109 -0.013382 0.001633
v 0.105157 -0.024808 0.023468
v 0.075813 -0.000616 0.032186
v 0.104739 -0.026274 0.022521
v 0.100356 -0.011707 0.001752
v 0.104013 -0.021172 0.025358
v 0.104290 -0.023116 0.024425
v 0.032175 0.013277 0.032847
v 0.074782 -0.000660 0.032319
v 0.099098 -0.013605 0.000840
v 0.075690 -0.002077 0.032125
v 0.099736 -0.000736 0.006455
v 0.102635 -0.022909 0.024592
v 0.033209 0.014635 0.031930
v 0.072996 0.002377 0.032160
v 0.073354 0.000636 0.032443
v 0.102024 -0.022012 0.025067
v 0.100983 -0.022221 0.024967
v 0.100957 -0.023486 0.024258
v 0.099119 -0.001670 0.005184
v 0.034886 0.016184 0.030590
v 0.104215 -0.024176 0.023821
v 0.103056 -0.023594 0.024183
v 0.031685 0.014657 0.031992
v 0.072702 0.004724 0.031170
v 0.103841 -0.025134 0.023235
v 0.100567 -0.005533 0.003931
v 0.099568 -0.003798 0.004248
v 0.071002 0.002903 0.032391
v 0.071696 0.001225 0.032589
v 0.102979 -0.025999 0.022607
v 0.071000 0.001296 0.032666
v 0.102045 -0.024518 0.023601
v 0.030591 0.013790 0.032633
v 0.071154 0.004286 0.031863
v 0.098656 -0.005197 0.003178
v 0.101671 -0.026593 0.022069
v 0.101249 -0.013129 0.027501
v 0.074028 0.000186 0.032374
v 0.072805 -0.000965 0.032409
v 0.099624 -0.013688 0.028013
v 0.100454 -0.015639 0.027484
v 0.030702 0.011737 0.033574
v 0.097618 -0.000218 0.005340
v 0.098838 -0.015838 0.027694
v 0.037235 0.017158 0.029517
v 0.097230 -0.013975 0.028367
v 0.096715 -0.001545 0.004030
v 0.100269 -0.018892 0.026502
v 0.035807 0.017599 0.029242
v 0.072016 0.000459 0.032586
v 0.099433 -0.017678 0.027056
v 0.095926 -0.000486 0.004281
v 0.034303 0.017523 0.029439
v 0.033519 0.016429 0.030475
v 0.100073 -0.006773 0.003180
v 0.097574 -0.003262 0.003557
v 0.097562 -0.017311 0.027376
v 0.070487 -0.001093 0.032460
v 0.071412 -0.003228 0.031963
v 0.097757 -0.018586 0.026894
v 0.099029 -0.019936 0.026205
v 0.098313 -0.005998 0.002773
v 0.097714 -0.005121 0.002845
v 0.097269 -0.012517 0.028627
v 0.096928 -0.015658 0.027960
v 0.096357 -0.002792 0.003287
v 0.096270 -0.003820 0.002824
v 0.095514 -0.014003 0.028529
v 0.096625 -0.004174 0.002815
v 0.096920 -0.004929 0.002644
v 0.094520 -0.015162 0.028277
v 0.076401 0.005353 0.029544
v 0.034800 0.019036 0.027933
v 0.032772 0.017759 0.029371
v 0.095222 -0.005347 0.001933
v 0.095208 0.001054 0.004961
v 0.095869 -0.016581 0.027756
v 0.094726 -0.001613 0.003228
v 0.095342 -0.018252 0.027173
v 0.031520 0.016039 0.030943
v 0.096864 -0.019604 0.026504
v 0.074936 0.005555 0.029969
v 0.094494 -0.003390 0.002412
v 0.095403 -0.003747 0.002570
v 0.094705 -0.004294 0.002137
v 0.073728 0.006260 0.029935
v 0.094140 -0.016435 0.027894
v 0.100238 -0.008354 0.002661
v 0.093789 -0.017816 0.027386
v 0.099605 -0.007571 0.002679
v 0.093570 -0.018937 0.026935
v 0.094143 -0.019147 0.026833
v 0.100460 -0.020463 0.025847
v 0.101481 -0.021685 0.025235
v 0.098439 -0.008588 0.001939
v 0.076811 0.007767 0.027486
v 0.099631 -0.010157 0.001966
v 0.075270 0.006917 0.028863
v 0.100211 -0.022217 0.024978
v 0.099157 -0.022180 0.025024
v 0.098727 -0.011515 0.001259
v 0.100090 -0.022689 0.024717
v 0.098794 -0.006919 0.002614
v 0.098356 -0.021334 0.025536
v 0.030566 0.017434 0.029830
v 0.098729 -0.022629 0.024779
v 0.097598 -0.006782 0.002236
v 0.031197 0.018759 0.028567
v 0.074803 0.007944 0.028208
v 0.098066 -0.022917 0.024629
v 0.096921 -0.022611 0.024878
v 0.096723 -0.006121 0.002158
v 0.100636 -0.024944 0.023295
v 0.029269 0.012693 0.033282
v 0.099469 -0.023605 0.024188
v 0.099099 -0.025396 0.022977
v 0.029258 0.014942 0.031926
v 0.095936 -0.007304 0.001509
v 0.099182 -0.026867 0.021794
v 0.098911 -0.023281 0.024390
v 0.098170 -0.024609 0.023555
v 0.097126 -0.009691 0.001269
v 0.095148 -0.008389 0.001031
v 0.027808 0.013902 0.032704
v 0.097708 -0.023783 0.024097
v 0.070549 0.005744 0.031264
v 0.097494 -0.026388 0.022158
v 0.096778 -0.020916 0.025851
v 0.097080 -0.011597 0.000738
v 0.095388 -0.020861 0.025946
v 0.072503 0.006584 0.030140
v 0.095176 -0.022177 0.025238
v 0.096937 -0.013138 0.000392
v 0.094618 -0.019971 0.026427
v 0.094116 -0.021425 0.025690
v 0.029129 0.010443 0.033839
v 0.071306 0.007052 0.030232
v 0.095380 -0.010233 0.000603
v 0.028468 0.011014 0.033802
v 0.093700 -0.022070 0.025342
v 0.093764 -0.022599 0.025035
v 0.095086 -0.012839 -0.000029
v 0.096832 -0.024516 0.023622
v 0.096026 -0.023550 0.024351
v 0.027288 0.012275 0.033517
v 0.096558 -0.025193 0.023126
v 0.095464 -0.024802 0.023493
v 0.070832 -0.004800 0.031520
v 0.095979 -0.025580 0.022821
v 0.097828 0.002292 0.019588
v 0.098328 0.002694 0.017860
v 0.096395 0.003825 0.018541
v 0.085693 -0.013265 0.029338
v 0.087672 -0.013864 0.029061
v 0.086316 -0.012457 0.029596
v 0.094129 -0.023401 0.024530
v 0.094791 0.003678 0.020696
v 0.097046 0.001948 0.020991
v 0.094588 -0.024502 0.023763
v 0.085956 -0.014299 0.028958
v 0.093461 -0.024142 0.024025
v 0.085338 -0.013455 0.029279
v 0.025245 0.013535 0.033006
v 0.085951 -0.015815 0.028375
v 0.086692 -0.015012 0.028668
v 0.095096 -0.025625 0.022827
v 0.083878 -0.014978 0.028701
v 0.085279 -0.015564 0.028488
v 0.094325 0.004922 0.019119
v 0.093889 -0.025815 0.022668
v 0.085677 -0.012196 0.029696
v 0.086093 -0.011417 0.029934
v 0.086800 -0.011074 0.030005
v 0.085625 -0.011690 0.029859
v 0.092933 -0.015570 0.028235
v 0.092948 -0.016540 0.027892
v 0.027066 0.010870 0.033847
v 0.026934 0.009889 0.033885
v 0.093900 0.005641 0.017887
v 0.083689 -0.012106 0.029749
v 0.084425 -0.013495 0.029280
v 0.095719 0.004713 0.016929
v 0.096996 0.003950 0.016441
v 0.092972 0.004532 0.021119
v 0.093133 0.003161 0.022698
v 0.092563 -0.016964 0.027741
v 0.092933 -0.018432 0.027154
v 0.025321 0.012130 0.033617
v 0.092152 -0.017716 0.027458
v 0.026127 0.010777 0.033880
v 0.092289 -0.018965 0.026935
v 0.091484 -0.018460 0.027161
v 0.091572 -0.016747 0.027860
v 0.091007 -0.017814 0.027447
v 0.090555 -0.019836 0.026538
v 0.093538 -0.019970 0.026461
v 0.092696 -0.020328 0.026291
v 0.092878 -0.021057 0.025905
v 0.025378 0.009315 0.033887
v 0.026481 0.006776 0.033500
v 0.092552 0.005610 0.019848
v 0.091322 0.005021 0.021667
v 0.092857 -0.021662 0.025581
v 0.093091 -0.022841 0.024897
v 0.024940 0.010833 0.033881
v 0.024062 0.011470 0.033829
v 0.091815 -0.022932 0.024809
v 0.082544 -0.014182 0.028989
v 0.023922 0.010386 0.033928
v 0.091399 -0.020835 0.026026
v 0.090676 0.006612 0.020055
v 0.087116 -0.016191 0.028195
v 0.086514 -0.016364 0.028128
v 0.092175 0.006448 0.018548
v 0.090120 -0.021850 0.025414
v 0.085694 -0.016544 0.028061
v 0.086010 -0.017496 0.027619
v 0.096194 0.004589 0.015033
v 0.023506 0.008375 0.033770
v 0.025002 